<?xml version="1.0" encoding="UTF-8" standalone="no"?>
<svg xmlns="http://www.w3.org/2000/svg" viewBox="0 0 340.59 12.86" data-name="tdroite 2" id="tdroite2"><title id="title2">menu-2-droite</title>
  <path sodipodi:nodetypes="sscccsccccccccccscsccccccccccccsccsssccccsccc" d="M 31.902344,0.29492188 C 28.884428,0.26368125 26.524611,0.43950251 25.658203,0.953125 25.476009,1.0611326 25.627635,1.1604781 26.007812,1.2519531 25.435544,1.407001 25.00365,1.5883948 24.771484,1.8066406 20.395534,5.9202506 6.24806,7.4287125 5.0625,8.3203125 c 4.96438,0.83935 9.124191,0.3944325 12.238281,1.0703125 7.613595,1.652449 10.087595,3.267724 9.990235,3.902344 139.287004,-2.780807 23.012105,0.633037 124.359374,-3.4414065 5.07727,-0.2483482 -48.03729,2.1986795 189.27734,-4.2402344 -19.82995,0.060614 -149.95005,-1.6748199 -201.04687,-2.5 3.20274,-0.083586 6.24116,-0.1558318 9.53906,-0.2480469 -6.45478,0.094348 -12.42846,0.1315126 -17.91015,0.1152344 -7.4867,-0.1279466 -12.52154,-0.2266435 -13.20313,-0.2714844 -0.65232,0.043297 -0.86898,0.067579 -1.43945,0.1074219 C 93.823207,2.3794807 77.505542,1.2512256 53.792969,1.265625 48.897787,0.95111154 43.367636,0.67969097 38.341797,0.59765625 36.075145,0.43950281 33.847243,0.31505494 31.902344,0.29492188 Z M 149.41992,2.8632812 c 9.04825,-0.1322559 19.05771,-0.3774568 30.63086,-0.8066406 24.14209,-0.895299 -3.30291,0.042503 -30.63086,0.8066406 z m 191.50781,2.7480469 c 2.05598,-0.00628 3.32635,-0.02575 2.75391,-0.074219 -1.07414,0.029184 -1.69146,0.045392 -2.75391,0.074219 z M 27.291016,13.292969 c -0.808004,0.01613 -1.127795,0.02056 -1.953125,0.03711 1.135494,0.365472 1.901354,0.300346 1.953125,-0.03711 z M 5.0625,8.3203125 c -0.09035,0.048636 -0.073663,0.041264 -0.1601562,0.087891 0.00299,0.00324 0.00684,0.0065 0.00977,0.00977 0.04221,-0.029137 0.1165845,-0.072233 0.1503906,-0.097656 z M 52.607422,2.171875 c 0.445531,0.00252 0.796591,0.00209 1.228516,0.00391 2.278294,0.1108234 0.625035,-0.2600337 -1.228516,-0.00391 0.441147,-0.088231 1.367386,0.2419436 0,3.8e-6 z M 2.7519531,9.5878906 c -0.07253,0.040356 -0.2219187,0.1207952 -0.2851562,0.15625 0.00161,0.024778 0.00121,0.043439 0.00391,0.070312 C 2.575569,9.7591996 2.6689769,9.708553 2.7812538,9.648437 2.7720438,9.627097 2.7625348,9.606536 2.7519568,9.58789 Z M 1.84375,10.085938 C 1.227968,10.43955 1.3412493,10.40265 1.873047,10.132808 1.862052,10.118698 1.854404,10.100468 1.84375,10.085938 Z" id="path4" />
</svg>
