<?xml version="1.0" encoding="UTF-8" standalone="no"?>
<svg xmlns="http://www.w3.org/2000/svg" id="tgauche2" data-name="tgauche 2" viewBox="0 0 340.59 12.86"><title id="title2">menu-2-gauche</title>
  <path
     d="m 340.12946,5.5499994 c 7.76054,-4.1775313 1.17985,-0.887305 0,0 -1.18556,0.891601 -15.33349,2.3997572 -19.70944,6.5133676 -2.78829,2.621124 -32.11689,0.420019 -39.65048,-0.251932 -2.91874,-0.260334 41.00111,-0.220206 38.76466,1.105596 -3.46563,2.054483 -30.84122,-1.283899 -28.54361,-1.743422 -4.61644,0.637896 1.14236,0.659576 29.42943,0.889758 C 256.69739,14.300216 246.77171,8.7862491 165.14072,11.813488 117.2944,13.587842 272.17664,8.1568517 226.8864,11.162956 221.76576,10.826072 -5.8479221,7.710059 1.5108249,8.333128 242.51112,1.7851196 188.4416,4.2681567 193.5416,4.0186943 295.47678,-0.0793808 176.75615,3.4101721 319.85522,0.5403442 c -3.27091,-1.05277644 -3.6249,1.4087614 8.03718,3.9398917 3.11409,0.6758795 7.27268,0.2304133 12.23706,1.0697635 z"
     id="path4"
     sodipodi:nodetypes="cssssccsccccsc" />
</svg>
